<?xml version="1.0" standalone="no"?>
<!DOCTYPE svg PUBLIC "-//W3C//DTD SVG 20010904//EN"
 "http://www.w3.org/TR/2001/REC-SVG-20010904/DTD/svg10.dtd">
<svg version="1.0" xmlns="http://www.w3.org/2000/svg"
 width="802.000000pt" height="802.000000pt" viewBox="0 0 802.000000 802.000000"
 preserveAspectRatio="xMidYMid meet">
<metadata>
Created by potrace 1.11, written by Peter Selinger 2001-2013
</metadata>
<g transform="translate(0.000000,802.000000) scale(0.100000,-0.100000)"
fill="#000000" stroke="none">
<path d="M3121 7299 c-72 -12 -167 -59 -226 -111 -59 -52 -120 -144 -140 -212
-26 -84 -347 -2800 -340 -2869 6 -59 17 -98 56 -202 61 -166 193 -285 363
-329 32 -9 156 -27 275 -41 119 -14 250 -31 291 -36 41 -6 113 -9 160 -7 l85
3 22 -60 c42 -111 78 -169 143 -235 100 -101 217 -150 358 -150 73 0 400 48
549 81 64 15 67 12 112 -74 82 -158 214 -253 399 -287 31 -5 116 -16 187 -24
72 -8 220 -26 330 -40 110 -14 227 -28 260 -31 33 -3 69 -8 80 -10 11 -3 119
-16 240 -30 121 -14 234 -27 252 -30 295 -43 520 -61 598 -46 145 27 292 137
359 268 53 107 45 55 141 858 14 116 28 233 31 260 8 74 12 108 28 240 8 66
29 235 45 375 17 140 42 350 56 465 82 681 88 766 59 866 -35 119 -128 240
-234 303 -30 19 -95 47 -145 64 -80 27 -163 39 -770 113 -374 45 -690 86 -702
90 -21 8 -23 15 -23 76 0 123 -47 242 -133 338 -65 74 -127 113 -250 158 -142
53 -191 55 -427 13 l-195 -35 -20 23 c-11 13 -30 29 -43 35 -12 7 -20 16 -17
22 4 5 4 9 1 9 -3 0 -373 45 -823 99 -940 115 -921 113 -992 100z m252 -263
c-21 -19 -31 -22 -41 -13 -11 9 -11 13 4 24 10 7 28 13 41 13 24 0 24 0 -4
-24z m332 -58 c18 -33 18 -33 -1 -18 -22 17 -34 32 -34 43 0 17 17 5 35 -25z
m-584 -4 c12 -23 12 -27 -6 -40 -44 -32 -86 7 -49 47 23 26 38 24 55 -7z m904
-1 c-11 -3 -27 -14 -36 -26 l-17 -20 -11 21 c-13 24 -3 31 49 30 20 0 26 -2
15 -5z m405 -43 c36 -11 8 -20 -65 -23 -49 -2 -60 1 -63 16 -3 15 4 17 50 16
29 -1 64 -4 78 -9z m-1206 -146 c3 -9 2 -23 -4 -32 -9 -17 -11 -15 -15 26 -3
25 10 30 19 6z m2349 -56 c58 -18 105 -66 113 -117 4 -25 14 -46 25 -52 11 -5
19 -21 19 -34 l0 -24 -128 6 c-186 9 -274 -20 -385 -126 -113 -108 -134 -167
-172 -488 -25 -210 -30 -233 -46 -233 -12 0 -19 7 -19 20 0 65 -180 -34 -236
-129 l-17 -29 -51 23 c-123 56 -139 60 -231 60 -81 0 -95 -3 -143 -29 -160
-89 -217 -265 -148 -461 55 -154 109 -239 217 -340 116 -108 307 -224 454
-276 48 -17 50 -18 46 -54 -1 -20 -28 -253 -60 -517 -60 -498 -60 -498 -106
-498 -12 0 -16 3 -8 8 18 11 21 47 3 45 -8 -1 -136 -23 -283 -48 -339 -57
-351 -57 -401 -6 -46 47 -60 99 -107 386 -17 105 -44 269 -60 365 -16 96 -38
229 -49 295 -11 66 -60 363 -110 660 -50 297 -95 581 -100 630 -6 50 -17 119
-26 155 -9 36 -24 118 -34 183 -23 154 -13 204 53 274 28 30 121 72 133 60 3
-2 -7 -8 -21 -11 -21 -5 -25 -11 -20 -24 11 -25 11 -28 -44 -265 -28 -120 -51
-223 -51 -228 0 -5 9 -9 20 -9 12 0 20 -7 20 -17 0 -23 29 -53 52 -53 36 0 60
22 85 78 14 32 32 65 40 75 25 26 66 21 97 -12 93 -101 93 -101 130 -101 46 0
76 29 76 72 0 33 -27 86 -142 280 -70 119 -114 168 -150 168 -11 0 -33 14 -48
30 l-28 30 26 0 c15 0 43 4 62 10 33 9 271 50 805 140 132 23 366 63 520 89
298 52 364 58 428 39z m-2572 -74 c11 -13 7 -21 -25 -52 l-38 -37 7 35 c14 67
31 84 56 54z m2716 -384 c110 -14 141 -18 288 -35 111 -13 205 -25 405 -50
120 -15 535 -65 585 -70 33 -4 71 -8 85 -10 14 -2 99 -14 190 -25 203 -26 232
-33 295 -74 62 -41 105 -101 112 -158 l5 -43 -46 47 c-33 32 -73 57 -129 81
l-82 35 -975 113 c-991 114 -985 113 -1065 85 -30 -11 55 61 95 81 71 34 118
38 237 23z m-2768 -93 c22 -45 25 -65 15 -91 -10 -25 -20 -19 -47 27 -17 30
-23 51 -20 75 7 44 27 40 52 -11z m286 -229 c40 -219 51 -308 39 -308 -7 0
-34 34 -60 76 -29 46 -62 86 -86 101 -39 27 -42 31 -38 73 3 40 15 54 62 71
65 25 76 24 83 -13z m4100 -93 c58 -24 70 -48 68 -139 -1 -44 -8 -125 -16
-179 -22 -147 -55 -172 -202 -155 -97 12 -131 28 -153 74 -15 33 -15 45 0 184
25 222 43 245 188 234 47 -3 99 -12 115 -19z m-4442 -83 c16 -17 15 -20 -18
-52 l-35 -34 0 27 c0 28 19 77 30 77 4 0 14 -8 23 -18z m2407 -239 c42 -95
122 -150 243 -167 37 -6 46 -10 38 -20 -6 -7 -18 -79 -28 -159 -9 -81 -20
-152 -24 -158 -5 -8 -47 -6 -158 7 -114 13 -157 15 -170 7 -15 -10 -17 -8 -15
10 2 12 15 119 29 237 27 224 40 290 55 290 5 0 18 -21 30 -47z m-2464 -225
c27 -51 35 -90 23 -105 -18 -21 -27 -16 -50 28 -15 30 -19 51 -14 75 8 42 20
43 41 2z m3319 -12 c11 -2 48 -7 83 -11 34 -4 64 -10 66 -13 2 -4 -7 -92 -20
-197 -12 -104 -23 -195 -23 -202 -1 -8 -15 -3 -37 12 -20 14 -41 25 -46 25 -6
0 -21 9 -34 19 -17 13 -49 21 -104 26 -49 4 -84 12 -91 21 -9 11 -9 38 -1 113
10 82 9 107 -3 147 -24 81 -28 78 88 71 56 -4 111 -9 122 -11z m1335 -1141
c-72 -603 -137 -1111 -144 -1129 -13 -29 -13 -26 -9 44 5 93 -13 135 -72 165
-21 11 -45 26 -53 33 -7 6 -16 12 -19 12 -3 0 -207 25 -455 55 -247 30 -454
53 -459 49 -20 -12 0 126 22 152 8 10 21 6 53 -17 50 -33 83 -39 531 -94 414
-50 438 -48 484 34 19 35 24 59 25 121 1 104 -19 132 -139 189 -20 10 -843
111 -897 111 -24 0 -28 4 -28 28 0 31 31 71 58 73 33 3 79 -1 277 -26 713 -88
712 -88 745 -55 11 11 20 30 20 42 0 24 -36 68 -56 68 -7 0 -17 7 -22 16 -8
13 -97 27 -487 75 -322 39 -481 63 -487 71 -4 7 -8 25 -8 40 0 25 34 334 45
405 2 17 9 73 15 125 6 51 12 107 15 123 2 17 7 55 10 85 4 30 12 106 19 168
8 75 17 117 27 123 8 6 39 8 69 5 102 -10 584 -65 650 -74 36 -5 105 -10 154
-11 78 -2 95 1 143 24 29 15 64 40 76 57 12 16 23 25 25 20 1 -5 -56 -503
-128 -1107z m-1724 968 c-2 -16 -7 -55 -11 -88 -3 -33 -8 -72 -11 -87 -5 -23
-2 -28 14 -28 14 0 22 -9 27 -29 13 -59 65 -87 178 -97 91 -9 117 -18 117 -44
0 -25 4 -25 -194 0 -88 11 -160 19 -161 17 -1 -1 -10 -69 -19 -152 -21 -183
-24 -198 -37 -189 -8 4 -9 47 -5 133 8 143 2 163 -53 192 -19 10 -37 23 -40
28 -4 5 -51 16 -105 23 -101 13 -125 27 -86 48 16 9 43 9 108 0 173 -23 212 5
232 169 14 110 20 131 37 131 11 0 13 -7 9 -27z m-2966 -246 c0 -4 -16 -24
-36 -45 l-35 -37 6 40 c10 62 22 77 45 62 11 -6 20 -15 20 -20z m2409 -171
c35 -36 68 -48 189 -67 48 -7 75 -16 79 -26 3 -8 1 -56 -5 -107 -11 -83 -10
-93 6 -116 18 -24 52 -102 52 -118 0 -9 -411 37 -422 47 -9 8 27 325 43 383 5
21 13 38 17 38 5 0 23 -15 41 -34z m1011 -153 c0 -16 -9 -100 -20 -188 -11
-88 -20 -165 -20 -171 0 -7 -59 -3 -177 12 -98 13 -184 23 -190 24 -20 0 -16
18 12 54 19 24 29 58 41 137 12 77 22 110 38 127 20 23 25 23 106 16 102 -10
155 -8 178 6 27 15 32 12 32 -17z m-2920 -65 c0 -12 -38 -10 -45 2 -3 5 -1 19
6 31 l12 22 13 -24 c7 -13 13 -27 14 -31z m-560 -80 c41 -90 11 -143 -34 -62
-18 32 -24 54 -19 75 8 42 31 36 53 -13z m2421 -252 c35 -16 90 -29 154 -36
55 -6 111 -13 125 -15 26 -4 149 -19 450 -55 281 -34 271 -32 265 -68 -10 -55
-115 -961 -115 -987 0 -19 6 -29 21 -32 16 -4 19 -12 17 -37 -3 -26 -7 -31
-28 -29 -14 1 -216 25 -450 53 -290 34 -435 56 -458 67 -78 40 -143 135 -157
233 -7 45 3 150 50 530 13 107 26 222 30 255 9 84 25 145 39 145 2 0 28 -11
57 -24z m-2247 -32 c9 -23 -2 -54 -20 -54 -14 0 -19 27 -8 54 8 21 20 20 28 0z
m631 -95 c8 -25 -13 -43 -32 -27 -9 7 -10 15 -2 29 13 25 26 24 34 -2z m-845
-34 c0 -8 9 -20 20 -27 20 -13 28 -62 12 -72 -11 -6 -62 73 -62 96 0 10 7 18
15 18 8 0 15 -7 15 -15z m363 -172 c25 -32 45 -58 44 -59 -1 -1 -44 3 -96 9
-97 12 -120 25 -77 45 13 6 32 22 43 36 10 14 23 26 29 26 6 0 31 -26 57 -57z
m318 -54 l33 -42 -80 8 c-43 4 -81 9 -83 11 -10 9 68 64 91 64 3 0 21 -19 39
-41z m3509 -123 c157 -19 293 -37 303 -41 19 -8 24 -45 5 -45 -47 -1 -695 84
-703 92 -19 18 26 40 70 34 22 -4 168 -21 325 -40z m-298 -465 c40 -6 172 -22
293 -36 121 -15 230 -30 243 -35 13 -6 22 -18 22 -31 0 -17 -4 -20 -27 -15
-16 3 -167 22 -338 42 -337 40 -364 46 -345 69 14 17 50 19 152 6z m-261 -178
c14 -7 95 -22 180 -33 541 -71 710 -86 754 -66 15 7 12 1 -10 -23 -36 -39
-133 -87 -194 -96 -44 -7 -830 82 -853 96 -14 9 6 112 29 147 14 23 15 23 41
6 15 -10 39 -24 53 -31z"/>
<path d="M7126 5808 c-14 -11 -22 -43 -36 -159 -12 -103 -14 -150 -7 -167 11
-24 47 -36 138 -47 86 -9 96 3 114 144 21 163 20 197 -8 215 -33 22 -177 32
-201 14z"/>
<path d="M6618 5160 c-54 -29 -81 -73 -86 -142 -4 -46 0 -65 17 -93 11 -20 21
-41 21 -48 0 -23 54 -88 97 -116 l44 -29 -125 -101 c-68 -55 -127 -109 -131
-120 -6 -20 16 -74 35 -86 5 -3 10 -16 10 -29 0 -29 68 -125 114 -159 47 -36
99 -36 153 1 22 15 69 48 104 75 35 26 68 47 74 47 5 0 23 -30 38 -68 31 -75
46 -95 98 -135 109 -83 276 -12 307 130 21 93 -23 176 -124 234 -38 21 -54 36
-50 46 3 8 6 16 6 18 0 2 45 41 101 86 108 87 139 126 139 174 0 64 -103 195
-166 211 -15 4 -35 15 -45 25 -35 35 -68 23 -174 -61 l-99 -79 -11 44 c-18 69
-55 109 -147 154 -93 47 -141 51 -200 21z m172 -190 c0 -6 -12 -23 -26 -37
-18 -18 -29 -22 -37 -14 -18 18 8 61 38 61 14 0 25 -5 25 -10z m430 -114 c-19
-18 -500 -399 -517 -410 -7 -4 -13 -5 -13 -2 0 8 527 426 538 426 3 0 0 -6 -8
-14z m-10 -505 c-14 -27 -54 -54 -58 -41 -2 6 -1 22 2 35 5 20 13 25 37 25 26
0 29 -2 19 -19z"/>
<path d="M5205 3994 c-107 -84 -112 -96 -70 -158 14 -20 25 -45 25 -56 0 -10
22 -49 50 -85 80 -106 84 -89 -43 -191 -62 -49 -113 -97 -115 -107 -6 -29 83
-198 129 -245 72 -73 134 -71 234 7 119 94 138 93 215 -8 68 -90 102 -114 156
-114 49 0 95 26 161 92 71 71 67 125 -16 234 -87 114 -89 132 -14 193 133 110
153 141 134 209 -17 61 -89 145 -146 171 -28 12 -57 29 -64 38 -26 31 -61 18
-155 -57 -116 -93 -113 -91 -130 -70 -107 131 -119 143 -157 154 -21 7 -46 20
-55 31 -29 31 -64 21 -139 -38z m185 -187 c8 -7 41 -45 73 -84 99 -124 146
-131 262 -39 22 18 55 43 74 56 64 44 24 6 -78 -75 -55 -44 -100 -84 -101 -88
0 -5 11 -23 24 -40 13 -18 26 -45 30 -61 7 -28 27 -59 100 -155 l34 -45 -26
-20 -25 -20 -41 50 c-77 94 -122 134 -149 134 -17 0 -34 11 -50 32 l-25 32
-97 -78 c-53 -43 -98 -76 -100 -74 -3 2 30 32 71 67 142 118 146 151 35 290
-56 70 -72 108 -50 122 18 11 21 11 39 -4z"/>
<path d="M1422 3093 c-14 -31 -17 -68 -16 -203 1 -176 17 -362 65 -715 36
-275 37 -324 5 -361 -36 -42 -95 -37 -230 20 l-108 45 -81 -41 c-105 -54 -178
-63 -227 -27 -82 61 -132 169 -185 400 -29 131 -39 158 -61 177 -17 15 -36 22
-50 19 -24 -4 -34 9 -34 43 0 9 -6 23 -14 29 -27 22 -46 -27 -53 -133 l-6 -97
-80 -41 c-146 -76 -238 -184 -257 -305 -9 -51 -7 -62 15 -109 14 -29 25 -57
25 -62 0 -17 57 -60 96 -72 64 -21 165 -7 246 35 66 35 71 36 89 19 10 -9 32
-40 48 -68 36 -65 98 -121 170 -154 46 -21 71 -26 141 -26 81 -1 90 1 171 42
47 23 92 42 99 42 7 0 53 -18 101 -41 71 -32 100 -40 147 -40 75 -1 108 16
163 81 23 27 48 50 55 50 6 0 33 -20 59 -45 71 -66 126 -90 210 -90 44 0 81 6
101 16 l31 16 -25 -59 c-25 -57 -27 -59 -56 -52 -17 3 -48 17 -68 31 -21 14
-44 23 -52 20 -21 -8 -76 -107 -76 -138 0 -14 9 -34 20 -44 11 -10 20 -27 20
-38 0 -38 51 -89 124 -123 39 -19 87 -47 106 -64 40 -33 109 -54 254 -74 209
-29 278 -5 417 143 71 74 99 113 134 185 25 50 52 118 61 151 22 83 30 278 14
346 -28 124 -124 269 -176 269 -13 0 -36 14 -53 31 -17 17 -38 29 -47 27 -15
-3 -49 -82 -60 -138 -6 -30 38 -155 96 -270 l42 -83 -37 -73 c-39 -80 -118
-173 -194 -228 -53 -39 -189 -111 -197 -104 -2 3 3 22 12 44 21 50 14 123 -15
160 -27 35 -70 64 -93 64 -10 0 -37 14 -61 31 l-44 31 26 61 c23 54 26 76 26
177 0 92 -5 129 -23 188 -26 82 -71 140 -114 145 -15 1 -36 15 -48 30 -33 41
-54 35 -80 -24 -40 -95 -40 -98 27 -261 18 -44 7 -68 -33 -68 -44 0 -94 99
-143 281 -61 227 -91 401 -136 786 -20 172 -36 201 -107 195 -13 -1 -18 5 -18
22 0 65 -32 75 -58 19z"/>
<path d="M3067 2954 c-18 -36 -39 -157 -32 -177 5 -15 43 -348 90 -788 36
-346 49 -412 87 -469 44 -65 123 -51 148 26 15 44 8 230 -14 419 -8 66 -17
147 -21 180 -14 132 -75 642 -80 665 -15 71 -60 119 -99 104 -11 -4 -18 5 -26
35 -13 50 -31 52 -53 5z"/>
<path d="M4527 2938 c-9 -24 -21 -76 -28 -116 -10 -68 -9 -76 10 -115 14 -28
39 -138 71 -319 52 -290 56 -323 40 -333 -5 -3 -10 -11 -10 -17 0 -7 5 -6 14
1 17 14 17 13 41 -107 9 -45 14 -91 10 -101 -8 -25 -64 -51 -111 -51 -35 0
-113 26 -215 71 l-46 21 -83 -42 c-59 -30 -101 -44 -142 -47 l-57 -6 -70 72
c-54 54 -77 71 -98 71 -20 0 -34 9 -48 30 -41 62 -66 35 -86 -92 -12 -78 -17
-60 67 -248 23 -51 36 -98 40 -146 6 -66 4 -75 -22 -124 -62 -114 -199 -200
-451 -284 -77 -26 -148 -53 -158 -60 -25 -18 -12 -45 25 -53 23 -4 29 -10 25
-23 -8 -24 13 -65 39 -79 43 -22 114 -30 236 -28 124 2 126 2 190 39 161 91
276 271 312 489 6 41 18 81 26 91 8 10 37 19 74 23 42 5 86 20 137 46 41 22
85 39 98 39 13 0 56 -16 95 -37 120 -62 247 -58 324 10 135 118 137 366 9 902
-24 99 -25 125 -8 211 21 109 12 141 -65 222 -45 49 -64 62 -87 62 -24 0 -33
7 -45 32 -22 46 -36 45 -53 -4z"/>
<path d="M352 2842 c-37 -74 -40 -77 -68 -72 -16 4 -48 19 -71 34 -23 15 -47
25 -53 21 -16 -10 -70 -125 -70 -147 0 -10 9 -27 20 -38 11 -11 20 -28 20 -37
0 -27 42 -80 81 -102 21 -12 55 -21 79 -21 37 0 48 6 86 45 l44 44 65 -6 c78
-7 107 8 136 70 46 101 -2 207 -106 236 -19 5 -48 19 -64 30 -16 12 -36 21
-44 21 -10 0 -32 -31 -55 -78z"/>
<path d="M2418 2653 c-20 -24 -68 -131 -68 -153 0 -9 9 -25 20 -35 11 -10 20
-24 20 -32 0 -79 144 -146 223 -104 34 18 77 103 77 151 0 71 -40 107 -178
164 -75 31 -75 31 -94 9z"/>
<path d="M4922 2587 c-16 -19 -32 -65 -43 -121 -6 -33 -4 -87 6 -175 8 -69 33
-319 55 -556 48 -507 52 -536 91 -598 33 -54 68 -68 108 -46 46 26 56 62 55
189 -1 96 -25 399 -39 490 -4 27 -6 47 -30 290 -24 238 -45 380 -61 411 -17
34 -49 53 -75 46 -15 -4 -21 3 -29 34 -12 44 -23 54 -38 36z"/>
<path d="M1160 1168 c-11 -18 -27 -54 -36 -79 l-17 -47 -35 10 c-19 5 -52 21
-73 35 -21 14 -42 22 -48 19 -18 -12 -71 -113 -71 -138 0 -13 9 -34 20 -46 11
-12 20 -28 20 -37 0 -40 57 -101 113 -120 60 -22 99 -7 154 58 21 25 26 26 91
20 66 -5 70 -5 100 25 49 48 66 136 37 193 -17 33 -89 89 -114 89 -9 0 -33 11
-53 25 -49 33 -64 32 -88 -7z"/>
<path d="M4167 1092 c-8 -9 -30 -50 -48 -91 l-33 -74 27 -23 c15 -13 27 -30
27 -39 0 -81 143 -144 220 -98 67 39 97 162 54 221 -20 27 -83 62 -180 101
-49 19 -53 19 -67 3z"/>
</g>
</svg>
